<?xml version="1.0" standalone="no"?>
<!DOCTYPE svg PUBLIC "-//W3C//DTD SVG 20010904//EN"
 "http://www.w3.org/TR/2001/REC-SVG-20010904/DTD/svg10.dtd">
<svg version="1.0" xmlns="http://www.w3.org/2000/svg"
 width="300.000000pt" height="314.000000pt" viewBox="0 0 300.000000 314.000000"
 preserveAspectRatio="xMidYMid meet">
<metadata>
Created by potrace 1.10, written by Peter Selinger 2001-2011
</metadata>
<g transform="translate(0.000000,314.000000) scale(0.100000,-0.100000)"
fill="#bb3030" stroke="none">
<path d="M1376 3071 c-3 -4 -46 -19 -95 -32 -50 -13 -86 -26 -81 -29 5 -3 -15
-18 -45 -34 -30 -15 -55 -31 -55 -35 0 -4 -20 -18 -44 -31 -24 -12 -76 -52
-115 -89 -59 -55 -78 -82 -118 -166 -42 -88 -48 -108 -48 -165 1 -81 18 -188
38 -226 8 -16 18 -43 21 -60 6 -26 4 -32 -13 -37 -43 -11 -54 -99 -20 -162 25
-46 69 -177 69 -205 0 -10 13 -32 29 -48 17 -17 39 -57 51 -93 12 -35 35 -92
52 -127 29 -56 30 -63 15 -75 -19 -14 -37 -59 -37 -92 0 -13 -3 -25 -7 -27
-10 -4 -63 -110 -63 -124 0 -6 -20 -17 -44 -24 -25 -7 -55 -23 -68 -37 -13
-14 -53 -43 -90 -64 -37 -22 -69 -43 -72 -48 -3 -4 -49 -25 -103 -45 -130 -50
-169 -66 -223 -89 -25 -11 -72 -29 -106 -41 -34 -12 -59 -26 -57 -33 3 -7 -3
-9 -16 -6 -14 4 -35 -9 -76 -47 l-55 -53 0 -303 c0 -291 1 -305 20 -324 11
-11 20 -24 20 -30 0 -5 5 -10 10 -10 6 0 10 -7 10 -16 0 -20 28 -43 52 -44 14
0 15 5 8 31 -11 37 -1 74 11 43 4 -10 8 -31 8 -46 l1 -28 120 0 c127 0 142 7
101 45 -19 16 -21 16 -45 -9 l-24 -27 -7 30 c-3 16 -13 32 -22 35 -28 11 -4
159 66 415 12 41 20 97 20 126 -2 61 7 95 26 95 8 0 11 7 8 19 -13 49 -75 -40
-88 -124 -4 -27 -9 -65 -11 -82 -3 -18 -9 -45 -14 -59 -6 -15 -15 -58 -20 -96
-6 -38 -16 -79 -22 -91 -7 -12 -11 -26 -10 -30 1 -5 -2 -6 -8 -2 -5 3 -10 -1
-10 -9 0 -9 -4 -16 -10 -16 -5 0 -13 0 -17 0 -5 0 -8 5 -8 12 0 6 -6 13 -14
16 -21 7 -6 -71 24 -123 14 -23 25 -50 24 -61 0 -11 -8 -2 -19 24 -11 23 -26
45 -35 48 -8 3 -15 10 -15 16 0 5 -15 32 -33 61 -19 29 -44 83 -57 121 -19 58
-22 83 -17 160 2 50 6 98 8 106 8 29 48 95 58 93 5 -1 14 11 20 27 10 30 36
40 44 18 2 -8 15 -1 33 19 16 18 31 33 35 33 3 0 -2 -37 -12 -83 -23 -103 -23
-111 1 -67 11 19 19 49 20 65 0 28 45 95 64 95 4 0 20 9 36 20 24 17 30 18 46
5 11 -8 23 -10 29 -5 6 5 26 12 44 15 38 7 77 30 85 51 3 9 11 12 16 9 6 -4
22 1 36 10 33 22 42 13 40 -39 -1 -30 -10 -55 -29 -79 -33 -44 -36 -69 -4 -39
13 13 38 27 55 32 30 8 32 7 32 -19 0 -15 -9 -36 -20 -46 -23 -21 -26 -35 -7
-35 7 0 12 -16 13 -43 3 -80 9 -122 21 -135 7 -7 10 -19 7 -27 -4 -8 -1 -15 5
-15 7 0 11 -39 12 -117 l2 -118 12 95 c8 52 18 163 25 245 12 170 20 217 38
223 6 2 12 -1 12 -7 0 -6 16 -35 35 -63 30 -42 42 -52 70 -55 18 -2 36 1 40 7
3 6 10 8 15 5 4 -2 21 0 37 6 22 7 36 23 51 57 21 45 44 132 36 132 -2 0 10
28 27 63 18 34 34 76 36 92 2 17 4 36 5 43 1 9 6 8 22 -3 27 -19 59 -41 91
-60 36 -22 95 -116 85 -135 -5 -11 3 -24 30 -45 20 -16 47 -48 60 -70 22 -39
21 -39 -34 17 -30 31 -64 59 -75 63 -24 7 -36 35 -16 35 21 0 19 17 -3 22 -10
3 -18 15 -19 29 -1 13 -11 31 -23 41 -11 9 -20 20 -20 25 0 16 -60 36 -73 24
-20 -16 -64 -120 -81 -191 -8 -36 -18 -74 -21 -86 -5 -17 0 -22 37 -33 24 -7
53 -17 66 -22 13 -5 31 -9 40 -9 9 0 23 -9 29 -20 7 -10 22 -24 34 -30 19 -11
20 -10 10 9 -6 11 -29 41 -52 67 -22 25 -38 49 -35 52 11 10 143 -110 169
-154 4 -8 1 -24 -8 -38 -11 -17 -14 -31 -8 -43 5 -10 8 -58 7 -108 -8 -275
-12 -372 -19 -387 -5 -14 -2 -18 13 -18 23 0 26 20 42 325 13 249 24 281 148
416 29 31 52 62 52 68 0 6 11 16 24 20 17 7 25 20 30 48 6 41 73 123 101 123
8 0 15 4 15 8 0 5 23 37 50 71 28 34 50 66 50 71 0 5 3 17 6 27 4 10 -14 -9
-40 -42 -43 -55 -111 -104 -144 -105 -7 0 -15 7 -18 15 -4 8 -14 15 -24 15
-24 0 -37 -20 -13 -20 17 -1 17 -1 1 -14 -10 -7 -18 -16 -18 -20 0 -3 8 -6 18
-6 9 0 -5 -11 -31 -24 -49 -23 -82 -25 -127 -7 l-25 10 23 0 c13 1 21 5 17 11
-3 5 9 17 27 26 18 9 43 26 56 37 13 12 22 16 22 8 0 -8 10 -5 29 8 22 16 31
18 34 9 4 -10 8 -9 16 2 6 8 11 11 11 6 0 -5 7 -3 15 4 12 10 15 10 15 0 0 -8
2 -11 5 -8 8 7 -5 38 -16 38 -5 0 -9 -7 -9 -17 0 -15 -2 -15 -17 -1 -11 10
-35 15 -60 14 -45 -1 -62 14 -38 34 8 7 13 15 12 20 -3 10 99 79 129 86 13 3
24 11 24 18 0 7 4 6 9 -2 6 -11 14 -8 35 14 14 16 26 34 26 41 0 7 29 50 64
97 72 94 127 194 125 228 -1 23 -1 23 -7 2 -8 -24 -72 -103 -72 -88 0 5 -18
-11 -40 -36 -22 -25 -40 -41 -40 -36 0 5 -6 3 -14 -3 -7 -6 -22 -8 -31 -4 -14
5 -16 3 -10 -7 5 -9 4 -11 -4 -6 -9 6 -8 14 4 32 9 14 13 33 10 43 -3 10 6 47
19 82 30 81 23 135 -28 212 -29 44 -84 97 -99 97 -10 0 1 -57 17 -93 29 -67
31 -96 7 -113 -11 -8 -21 -22 -21 -30 0 -16 -10 -14 -69 7 -18 7 -22 14 -17
34 4 15 1 27 -7 32 -13 7 -37 45 -37 56 0 3 18 3 40 0 53 -7 66 19 26 54 -36
30 -48 29 -87 -9 -18 -18 -30 -26 -27 -17 3 9 -2 45 -12 82 -20 71 -21 208 -2
244 15 26 42 49 42 34 0 -6 6 -11 14 -11 8 0 18 -10 21 -22 16 -55 39 -90 74
-114 46 -30 90 -38 151 -27 l45 9 -36 25 c-36 24 -37 25 -19 47 10 12 21 28
24 35 3 8 11 4 25 -12 12 -13 21 -20 21 -16 0 4 6 2 13 -4 8 -6 17 -8 20 -4 4
3 13 0 22 -7 12 -10 15 -10 15 4 0 17 -71 93 -104 112 -25 13 -13 34 20 34 30
0 42 26 22 47 -17 16 -158 30 -199 20 -13 -4 -36 -18 -51 -32 l-28 -26 -20 33
c-16 27 -20 29 -21 13 0 -18 -1 -17 -10 4 -6 15 -15 21 -24 17 -9 -3 -15 0
-15 10 0 8 -4 12 -10 9 -6 -3 -7 1 -4 9 8 22 34 20 34 -1 1 -10 8 -2 16 17 12
28 17 32 25 20 8 -13 10 -13 18 0 5 8 25 32 45 52 36 37 45 58 25 58 -5 0 -7
-6 -3 -12 5 -9 2 -9 -9 1 -9 7 -17 19 -17 26 0 7 -6 18 -14 24 -16 14 -11 42
17 89 10 17 16 32 13 32 -3 0 3 9 14 20 30 30 129 48 200 37 32 -5 90 -47 110
-79 29 -47 38 -88 45 -213 3 -60 13 -132 20 -158 8 -27 18 -96 21 -154 7 -102
8 -104 29 -99 28 7 42 -9 47 -54 l4 -35 24 50 c15 34 26 81 32 143 4 51 15
112 23 135 8 23 15 56 15 73 0 16 5 35 12 42 28 28 -4 211 -47 268 -8 10 -15
27 -15 37 -1 52 -184 244 -275 288 -33 16 -67 29 -75 29 -8 0 -53 14 -100 31
-74 27 -101 31 -217 35 -72 2 -134 0 -137 -5z m505 -893 c10 -18 8 -18 -30 4
-23 13 -41 26 -41 30 0 14 61 -15 71 -34z m-588 -9 c3 -10 4 -19 2 -19 -2 0
-10 -2 -18 -6 -10 -4 -14 3 -13 24 1 32 21 33 29 1z m877 -49 c0 -18 -38 -44
-49 -34 -3 3 40 53 47 54 1 0 2 -9 2 -20z m-543 -432 c9 -10 11 -18 5 -18 -19
0 -62 22 -57 30 8 13 35 7 52 -12z m40 -49 c8 -7 24 -18 36 -24 11 -5 29 -22
39 -36 l19 -26 -36 -36 c-20 -20 -41 -37 -46 -37 -5 0 -9 -5 -9 -10 0 -16 -60
-48 -80 -43 -27 7 -31 27 -15 74 8 23 15 43 15 44 0 2 -12 6 -26 9 -20 5 -23
10 -14 21 8 10 6 16 -10 28 -21 15 -23 35 -5 50 14 12 114 1 132 -14z m-665
-396 c28 -34 13 -104 -15 -73 -9 10 -9 11 1 6 6 -4 12 -2 12 3 0 6 -6 11 -12
11 -9 0 -12 15 -11 47 2 62 5 74 10 43 3 -14 9 -30 15 -37z m129 -245 c-4 -12
-13 -24 -19 -26 -14 -4 -4 29 12 40 16 11 16 10 7 -14z m127 -67 c4 -28 -13
-20 -21 9 -3 14 -1 20 6 17 7 -2 14 -14 15 -26z m-171 -18 c-4 -3 -7 0 -7 7 0
7 3 10 7 7 3 -4 3 -10 0 -14z m280 -156 c-1 -40 4 -67 12 -63 10 6 25 -10 34
-37 5 -13 -2 -11 -28 10 -19 16 -35 33 -35 40 0 7 -10 18 -22 24 -22 11 -38
28 -38 39 0 3 17 4 39 2 21 -2 38 -9 38 -15z m-1283 -661 c16 -33 13 -66 -5
-66 -5 0 -9 9 -9 20 0 11 -4 20 -9 20 -5 0 -11 11 -13 25 -3 14 -1 25 4 25 5
0 6 5 2 12 -4 6 -3 8 3 5 6 -4 18 -22 27 -41z"/>
<path d="M2060 1908 c0 -26 2 -29 15 -18 8 7 15 18 15 25 0 7 -7 15 -15 19
-11 4 -15 -2 -15 -26z"/>
<path d="M1907 1406 c-7 -19 -21 -202 -14 -196 3 3 15 33 26 67 25 73 28 143
7 143 -8 0 -16 -6 -19 -14z"/>
<path d="M1736 1234 c-8 -21 9 -25 21 -5 9 14 8 18 -3 18 -7 0 -15 -6 -18 -13z"/>
<path d="M1675 1180 c-3 -5 1 -10 9 -10 8 0 18 5 21 10 3 6 -1 10 -9 10 -8 0
-18 -4 -21 -10z"/>
<path d="M1640 1159 c0 -5 5 -7 10 -4 6 3 10 8 10 11 0 2 -4 4 -10 4 -5 0 -10
-5 -10 -11z"/>
<path d="M1665 1147 c-17 -13 -17 -14 3 -19 16 -4 20 -1 19 13 -1 11 -2 19 -2
19 -1 0 -9 -6 -20 -13z"/>
<path d="M1613 1143 c4 -3 10 -3 14 0 3 4 0 7 -7 7 -7 0 -10 -3 -7 -7z"/>
<path d="M1746 1127 c3 -10 9 -15 12 -12 3 3 0 11 -7 18 -10 9 -11 8 -5 -6z"/>
<path d="M1774 932 c-15 -10 -25 -40 -15 -46 5 -3 7 -21 4 -40 -2 -25 2 -40
16 -53 23 -21 64 -80 73 -105 6 -15 12 -15 62 -2 39 10 62 11 81 4 34 -13 35
-13 35 4 0 35 -196 246 -228 246 -10 0 -22 -4 -28 -8z"/>
<path d="M157 330 c3 -36 10 -69 15 -75 7 -6 7 9 3 45 -11 83 -25 105 -18 30z"/>
<path d="M394 218 c-4 -7 -3 -8 4 -4 12 7 16 16 8 16 -3 0 -8 -5 -12 -12z"/>
<path d="M2850 220 c0 -7 3 -10 7 -7 3 4 3 10 0 14 -4 3 -7 0 -7 -7z"/>
<path d="M2841 182 c-1 -23 -47 -118 -78 -162 -14 -18 -15 -22 -3 -16 54 31
96 115 87 173 -3 23 -4 24 -6 5z"/>
<path d="M703 90 c0 -25 2 -35 4 -22 2 12 2 32 0 45 -2 12 -4 2 -4 -23z"/>
</g>
</svg>
